<svg xmlns="http://www.w3.org/2000/svg" width="19.643" height="24.716" viewBox="0 0 19.643 24.716">
  <g id="グループ_9166" data-name="グループ 9166" transform="translate(-233.301 -7401.905)">
    <path id="パス_9247" data-name="パス 9247" d="M27.643,14.565v10.76a2.458,2.458,0,0,1-2.52,2.391H12.52A2.458,2.458,0,0,1,10,25.325V7.391A2.458,2.458,0,0,1,12.52,5h8.821" transform="translate(224.301 7397.905)" fill="none" stroke="#000" stroke-linecap="round" stroke-linejoin="round" stroke-width="2"/>
    <path id="パス_9248" data-name="パス 9248" d="M34.3,11.3H29.72A1.72,1.72,0,0,1,28,9.581V5" transform="translate(217.643 7397.905)" fill="none" stroke="#000" stroke-linecap="round" stroke-linejoin="round" stroke-width="2"/>
    <path id="パス_9249" data-name="パス 9249" d="M28,5a6.3,6.3,0,0,1,6.3,6.3" transform="translate(217.643 7397.905)" fill="none" stroke="#000" stroke-linecap="round" stroke-linejoin="round" stroke-width="2"/>
    <line id="線_6" data-name="線 6" x2="6" transform="translate(240 7413)" fill="none" stroke="#000" stroke-linecap="round" stroke-linejoin="round" stroke-width="2"/>
    <line id="線_7" data-name="線 7" x2="6" transform="translate(240 7417)" fill="none" stroke="#000" stroke-linecap="round" stroke-linejoin="round" stroke-width="2"/>
    <line id="線_8" data-name="線 8" x2="6" transform="translate(240 7421)" fill="none" stroke="#000" stroke-linecap="round" stroke-linejoin="round" stroke-width="2"/>
  </g>
</svg>
