<svg xmlns="http://www.w3.org/2000/svg" xmlns:xlink="http://www.w3.org/1999/xlink" width="255.948" height="26.936" viewBox="0 0 255.948 26.936">
  <defs>
    <linearGradient id="linear-gradient" x1="0.5" x2="1" y2="1.763" gradientUnits="objectBoundingBox">
      <stop offset="0" stop-color="#4bacff"/>
      <stop offset="1" stop-color="#aeeef2"/>
    </linearGradient>
  </defs>
  <path id="パス_8887" data-name="パス 8887" d="M6.608-21.728l.2,4.312c1.036-.112,2.044-.224,2.716-.28,1.12-.112,3.752-.252,4.844-.336a64.542,64.542,0,0,1-7.112,5.684c-1.484.168-3.472.42-4.956.56l.392,4.116C5.208-8.12,7.98-8.54,10.3-8.708A6.69,6.69,0,0,0,8.96-4.788c0,4.872,4.424,7.056,11.788,6.748l.9-4.48a29.383,29.383,0,0,1-4.4-.056c-2.492-.252-3.92-1.064-3.92-2.94,0-2.1,1.848-3.64,4.312-3.976a44.335,44.335,0,0,1,7.28-.028l-.028-4c-3.052,0-7.476.252-10.948.588C15.68-14.28,17.7-15.988,19.656-17.5a31.215,31.215,0,0,1,2.6-1.82L19.6-22.456a11.117,11.117,0,0,1-2.184.392c-1.764.2-6.72.448-7.9.448C8.512-21.616,7.616-21.644,6.608-21.728ZM55.384-9.884c0-6.356-4.508-11.284-11.648-11.284-7.476,0-13.216,5.656-13.216,12.32,0,4.788,2.632,8.54,6.1,8.54,3.3,0,5.824-3.752,7.476-9.352a55.724,55.724,0,0,0,1.652-7.308c3.22.756,4.984,3.332,4.984,6.944,0,3.7-2.38,6.188-5.936,7.056a21.307,21.307,0,0,1-2.744.5l2.576,4.032C51.912.336,55.384-3.976,55.384-9.884ZM34.916-9.3a8.349,8.349,0,0,1,6.216-7.56,41.563,41.563,0,0,1-1.428,6.3C38.7-7.308,37.856-5.6,36.736-5.6,35.756-5.6,34.916-6.86,34.916-9.3Zm45.976-5.6c-.028,3.164-.056,4.48-.084,4.844-.084.448-.252.532-.56.532-.28,0-.9-.028-1.4-.056v-4.508ZM75.124-1.428c-1.764,0-1.988-.2-1.988-1.932v-8.456l1.9-.756v8.344h3.808v-5.18A12.583,12.583,0,0,1,79.6-5.852a7.33,7.33,0,0,0,3.36-.5A3.01,3.01,0,0,0,84.5-9.212c.112-1.2.14-4.228.168-9.016l.14-.616L82.04-19.88l-.7.5-.644.42-1.848.728v-5.544H75.04v7.028l-1.9.756v-4.62H69.1v6.188l-3.22,1.26v-3.948a47.9,47.9,0,0,0,2.492-5.516l-3.752-1.2a28.655,28.655,0,0,1-6.076,10.164,32.626,32.626,0,0,1,2.1,4.2c.42-.448.812-.924,1.232-1.428V2.632h4V-12.8L67.34-9.52l1.764-.7v6.86c0,4.34,1.2,5.572,5.628,5.572H80.3c3.752,0,4.928-1.456,5.432-5.824A11.754,11.754,0,0,1,82.1-5.18c-.28,3.136-.588,3.752-2.184,3.752Zm38.5-8.456c0-6.356-4.508-11.284-11.648-11.284-7.476,0-13.216,5.656-13.216,12.32,0,4.788,2.632,8.54,6.1,8.54,3.3,0,5.824-3.752,7.476-9.352a55.726,55.726,0,0,0,1.652-7.308c3.22.756,4.984,3.332,4.984,6.944,0,3.7-2.38,6.188-5.936,7.056a21.307,21.307,0,0,1-2.744.5l2.576,4.032C110.152.336,113.624-3.976,113.624-9.884ZM93.156-9.3a8.349,8.349,0,0,1,6.216-7.56,41.563,41.563,0,0,1-1.428,6.3C96.936-7.308,96.1-5.6,94.976-5.6,94-5.6,93.156-6.86,93.156-9.3Zm38.612-13.412h-4.984a23.145,23.145,0,0,1,.224,2.716c0,.756,0,1.512-.028,2.212h-3.5c-1.064,0-2.66-.084-3.948-.224v4.424c1.288-.112,3.08-.14,3.948-.14h3.164a15.3,15.3,0,0,1-4.116,8.96,17.6,17.6,0,0,1-4.144,3.108l3.948,3.192c5.18-3.724,7.728-8.176,8.736-15.26h5.46c0,3.052-.392,7.924-1.064,9.464a1.376,1.376,0,0,1-1.54,1.036,21.931,21.931,0,0,1-3.808-.42L130.648.9c1.316.112,3,.252,4.732.252,2.128,0,3.3-.868,3.92-2.408,1.176-2.94,1.54-10.584,1.652-13.8a12.847,12.847,0,0,1,.2-1.54L138.264-18a13.851,13.851,0,0,1-2.324.224h-4.48c.056-.728.084-1.512.112-2.3C131.6-20.748,131.684-22.036,131.768-22.708ZM159.348-.644l2.828,2.324A9.481,9.481,0,0,1,163.52.756a32.335,32.335,0,0,0,9.464-7.588l-2.6-3.752a15.685,15.685,0,0,1-6.216,5.348V-19.012a17.009,17.009,0,0,1,.224-2.632h-5.04a14.651,14.651,0,0,1,.252,2.6V-2.968A10.71,10.71,0,0,1,159.348-.644ZM146.3-1.2l4.144,2.744a16.838,16.838,0,0,0,5.012-8.232c.728-2.828.812-8.68.812-12.124a22.132,22.132,0,0,1,.224-2.828h-4.984a10.862,10.862,0,0,1,.308,2.884c0,3.5-.028,8.652-.812,10.948A12.864,12.864,0,0,1,146.3-1.2Zm32.48-19.264,1.064,3.892c1.764-.028,4.508-.14,7.112-.336v3.332H179.4c-.9,0-1.82-.084-2.66-.168v4.34c.756-.056,1.848-.112,2.688-.112h7.336c-.672,3.724-2.828,6.608-6.972,8.484l4.34,2.912A14.755,14.755,0,0,0,191.3-9.52h6.916c.812,0,1.792.056,2.632.112v-4.34c-.644.056-2.128.168-2.716.168h-6.692v-3.892c1.484-.224,2.912-.5,4.228-.84.5-.112,1.344-.336,2.492-.616l-2.772-3.724a27.4,27.4,0,0,1-6.972,1.736A67.187,67.187,0,0,1,178.78-20.468Zm36.232,2.324-4.536,1.064a11.97,11.97,0,0,1,.868,2.156c.2.588.42,1.4.644,2.3-1.092.2-1.932.336-2.3.392-.98.168-1.792.252-2.716.336l1.036,4.032c.9-.2,2.8-.616,4.956-1.092.98,3.7,2.016,7.756,2.464,9.38a19.153,19.153,0,0,1,.56,2.688l4.592-1.12c-.224-.588-.672-2.044-.812-2.52C219.3-2.1,218.2-6.1,217.168-9.856c2.52-.532,4.7-.98,5.348-1.092a23.855,23.855,0,0,1-3.752,4.62l3.724,1.848a48.713,48.713,0,0,0,5.964-9.072l-2.744-1.932a7.642,7.642,0,0,1-1.6.5c-1.176.252-4.648.924-7.952,1.568-.252-.924-.476-1.764-.672-2.436C215.32-16.576,215.124-17.388,215.012-18.144Zm20.076,4.7v5.348c1.148-.084,3.248-.168,4.844-.168H254.8c1.148,0,2.716.14,3.444.168V-13.44c-.812.056-2.184.2-3.444.2H239.932C238.56-13.244,236.208-13.356,235.088-13.44Z" transform="translate(-2.296 23.828)" fill="url(#linear-gradient)"/>
</svg>
