<svg xmlns="http://www.w3.org/2000/svg" xmlns:xlink="http://www.w3.org/1999/xlink" width="257.824" height="26.992" viewBox="0 0 257.824 26.992">
  <defs>
    <linearGradient id="linear-gradient" x1="0.5" x2="1" y2="1" gradientUnits="objectBoundingBox">
      <stop offset="0" stop-color="#4bacff"/>
      <stop offset="1" stop-color="#aeeef2"/>
    </linearGradient>
  </defs>
  <path id="パス_8886" data-name="パス 8886" d="M13.776-7.56c-.588-.644-3.08-3.332-4.116-4.256v-.112H13.5v-3.864H9.66V-19.46A38.421,38.421,0,0,0,13.832-20.8l-2.8-3.08A43.013,43.013,0,0,1,.868-21.168a13.225,13.225,0,0,1,1.148,3.136c1.176-.14,2.408-.336,3.64-.56v2.8H1.12v3.864H4.788A27.676,27.676,0,0,1,.42-4.984,21.711,21.711,0,0,1,2.352-1.008a27.131,27.131,0,0,0,3.3-5.628V2.632h4v-9.8c.672.952,1.316,1.932,1.736,2.66Zm13.776,8.9a50.1,50.1,0,0,0-3.36-11.62l-3.92,1.092c.644,1.736,1.26,3.724,1.764,5.628-1.512.14-3,.308-4.424.448a159.911,159.911,0,0,0,3.64-19.46L16.6-23.3A138.558,138.558,0,0,1,13.356-2.688c-.952.084-1.848.168-2.6.224L11.7,1.848C14.868,1.428,18.9.812,22.876.2a23.3,23.3,0,0,1,.336,2.464ZM46-6.916l-4.032-.392a20.118,20.118,0,0,0-.532,4c0,2.856,2.6,4.62,7.5,4.62A46.223,46.223,0,0,0,54.8.924l.168-4.312a35.8,35.8,0,0,1-5.992.588c-2.464,0-3.332-.728-3.332-1.9A10.071,10.071,0,0,1,46-6.916ZM42.868-22.54l-5.18-.392A15.369,15.369,0,0,1,37.6-19.8c-.028.336-.084.7-.14,1.12-.784.028-1.512.056-2.268.056a29.276,29.276,0,0,1-3.612-.224l.112,4.228c.952.056,2.044.112,3.472.112.448,0,.924,0,1.428-.028-.14.672-.336,1.344-.5,1.988A64.186,64.186,0,0,1,31.164.084l4.7,1.6a91.726,91.726,0,0,0,4.48-13.048c.28-1.12.56-2.324.84-3.528a40.287,40.287,0,0,0,5.208-.9V-20.02q-2.142.5-4.284.84a3.818,3.818,0,0,0,.112-.476C42.364-20.3,42.644-21.672,42.868-22.54Zm1.092,8.456v3.948a43.54,43.54,0,0,1,5.544-.308,41.252,41.252,0,0,1,4.872.364l.084-4.06c-1.708-.168-3.388-.252-4.956-.252C47.684-14.392,45.584-14.252,43.96-14.084ZM71.372-22.54l-4.788-.2a15.4,15.4,0,0,1-.14,3.108c-.028.224-.056.476-.112.756a44.011,44.011,0,0,1-5.32-.56v4.2c1.316.14,2.856.2,4.536.252a44.627,44.627,0,0,1-3.136,9.1l4,1.4a7.706,7.706,0,0,1,.728-1.176A9.123,9.123,0,0,1,74.592-8.9c2.436,0,3.724,1.288,3.724,2.716,0,3.864-6.132,4.4-12.1,3.36l1.2,4.4C76.8,2.576,82.936.224,82.936-6.3c0-3.78-3.248-6.244-7.812-6.244a14.988,14.988,0,0,0-6.44,1.372c.336-1.2.672-2.548.98-3.892,3.836-.2,8.316-.756,11-1.176l-.084-4.032a69.614,69.614,0,0,1-10.052,1.288l.084-.42C70.868-20.412,71.036-21.42,71.372-22.54ZM113.624-9.884c0-6.356-4.508-11.284-11.648-11.284-7.476,0-13.216,5.656-13.216,12.32,0,4.788,2.632,8.54,6.1,8.54,3.3,0,5.824-3.752,7.476-9.352a55.726,55.726,0,0,0,1.652-7.308c3.22.756,4.984,3.332,4.984,6.944,0,3.7-2.38,6.188-5.936,7.056a21.307,21.307,0,0,1-2.744.5l2.576,4.032C110.152.336,113.624-3.976,113.624-9.884ZM93.156-9.3a8.349,8.349,0,0,1,6.216-7.56,41.563,41.563,0,0,1-1.428,6.3C96.936-7.308,96.1-5.6,94.976-5.6,94-5.6,93.156-6.86,93.156-9.3Zm38.612-13.412h-4.984a23.145,23.145,0,0,1,.224,2.716c0,.756,0,1.512-.028,2.212h-3.5c-1.064,0-2.66-.084-3.948-.224v4.424c1.288-.112,3.08-.14,3.948-.14h3.164a15.3,15.3,0,0,1-4.116,8.96,17.6,17.6,0,0,1-4.144,3.108l3.948,3.192c5.18-3.724,7.728-8.176,8.736-15.26h5.46c0,3.052-.392,7.924-1.064,9.464a1.376,1.376,0,0,1-1.54,1.036,21.931,21.931,0,0,1-3.808-.42L130.648.9c1.316.112,3,.252,4.732.252,2.128,0,3.3-.868,3.92-2.408,1.176-2.94,1.54-10.584,1.652-13.8a12.847,12.847,0,0,1,.2-1.54L138.264-18a13.851,13.851,0,0,1-2.324.224h-4.48c.056-.728.084-1.512.112-2.3C131.6-20.748,131.684-22.036,131.768-22.708ZM159.348-.644l2.828,2.324A9.481,9.481,0,0,1,163.52.756a32.335,32.335,0,0,0,9.464-7.588l-2.6-3.752a15.685,15.685,0,0,1-6.216,5.348V-19.012a17.009,17.009,0,0,1,.224-2.632h-5.04a14.651,14.651,0,0,1,.252,2.6V-2.968A10.71,10.71,0,0,1,159.348-.644ZM146.3-1.2l4.144,2.744a16.838,16.838,0,0,0,5.012-8.232c.728-2.828.812-8.68.812-12.124a22.132,22.132,0,0,1,.224-2.828h-4.984a10.862,10.862,0,0,1,.308,2.884c0,3.5-.028,8.652-.812,10.948A12.864,12.864,0,0,1,146.3-1.2Zm32.48-19.264,1.064,3.892c1.764-.028,4.508-.14,7.112-.336v3.332H179.4c-.9,0-1.82-.084-2.66-.168v4.34c.756-.056,1.848-.112,2.688-.112h7.336c-.672,3.724-2.828,6.608-6.972,8.484l4.34,2.912A14.755,14.755,0,0,0,191.3-9.52h6.916c.812,0,1.792.056,2.632.112v-4.34c-.644.056-2.128.168-2.716.168h-6.692v-3.892c1.484-.224,2.912-.5,4.228-.84.5-.112,1.344-.336,2.492-.616l-2.772-3.724a27.4,27.4,0,0,1-6.972,1.736A67.187,67.187,0,0,1,178.78-20.468Zm36.232,2.324-4.536,1.064a11.97,11.97,0,0,1,.868,2.156c.2.588.42,1.4.644,2.3-1.092.2-1.932.336-2.3.392-.98.168-1.792.252-2.716.336l1.036,4.032c.9-.2,2.8-.616,4.956-1.092.98,3.7,2.016,7.756,2.464,9.38a19.153,19.153,0,0,1,.56,2.688l4.592-1.12c-.224-.588-.672-2.044-.812-2.52C219.3-2.1,218.2-6.1,217.168-9.856c2.52-.532,4.7-.98,5.348-1.092a23.855,23.855,0,0,1-3.752,4.62l3.724,1.848a48.713,48.713,0,0,0,5.964-9.072l-2.744-1.932a7.642,7.642,0,0,1-1.6.5c-1.176.252-4.648.924-7.952,1.568-.252-.924-.476-1.764-.672-2.436C215.32-16.576,215.124-17.388,215.012-18.144Zm20.076,4.7v5.348c1.148-.084,3.248-.168,4.844-.168H254.8c1.148,0,2.716.14,3.444.168V-13.44c-.812.056-2.184.2-3.444.2H239.932C238.56-13.244,236.208-13.356,235.088-13.44Z" transform="translate(-0.42 23.884)" fill="url(#linear-gradient)"/>
</svg>
