<svg xmlns="http://www.w3.org/2000/svg" width="105.944" height="72.977" viewBox="0 0 105.944 72.977"><defs><style>.a{fill:#fff;}</style></defs><g transform="translate(-13915 254.288)"><path class="a" d="M2.226,90.287H15.29l-.606,11.308h4.361v4.139H.005v-4.139H10.3l.384-7.108H2.226Z" transform="translate(13914.995 -315.242)"/><path class="a" d="M67.007,106.543H80.192v3.877H67.007Z" transform="translate(13871.993 -325.702)"/><path class="a" d="M122.709,83.42h3.978v4.341h3.655V83.42h3.9v4.341h3.756v4.2h-3.756a14.306,14.306,0,0,1-.545,4.7,6.336,6.336,0,0,1-2.343,3.352,14.922,14.922,0,0,1-5.694,2.565l-2.686-3.817a22.753,22.753,0,0,0,4.988-1.373,3.209,3.209,0,0,0,1.918-2.019,11.617,11.617,0,0,0,.464-3.412h-3.655V95.8h-3.978V91.961h-3.655v-4.14h3.655Zm12.681,4.1a19.738,19.738,0,0,0-1.11-3.292l2.161-.929a6.868,6.868,0,0,1,1.292,3.331Zm2.888-.929a25.69,25.69,0,0,0-1.393-3.574l2.16-.828a17.979,17.979,0,0,1,1.333,3.372Z" transform="translate(13837.946 -310.03)"/><path class="a" d="M188.836,106.543h13.185v3.877H188.836Z" transform="translate(13794.164 -325.702)"/><path class="a" d="M253.415,104.3,251.6,100.7a6.417,6.417,0,0,1-2.019,2.4,3.786,3.786,0,0,1-2.393.656,3.659,3.659,0,0,1-2.312-.959,7.657,7.657,0,0,1-2.15-2.988,7.955,7.955,0,0,1-.535-3.675,11.549,11.549,0,0,1,4.22-8.38,9.7,9.7,0,0,1,3.432-1.908,9.489,9.489,0,0,1,3.917-.374,8.464,8.464,0,0,1,5.815,3.15,9.482,9.482,0,0,1,2.1,7.491,8.706,8.706,0,0,1-1.323,3.675,8.615,8.615,0,0,1-2.776,2.685A19.543,19.543,0,0,1,253.415,104.3ZM250.386,90.2a4.587,4.587,0,0,0-3.17,2.08,6.959,6.959,0,0,0-.727,5.835.731.731,0,0,0,.273.474.761.761,0,0,0,.555.171.745.745,0,0,0,.545-.181.678.678,0,0,0,.262-.485A29.235,29.235,0,0,0,250.386,90.2Zm4,0a26.815,26.815,0,0,1-2.827,10.419,7.132,7.132,0,0,0,5.149-2.726,6.761,6.761,0,0,0,.242-5.593A4.31,4.31,0,0,0,254.384,90.2Z" transform="translate(13758.843 -312.108)"/><path class="a" d="M0,2.524H8.5V0h3.957V2.524h5.775v4H12.459V9.45a3.276,3.276,0,0,1,.565,1.272,10.081,10.081,0,0,1-.323,4.826,4.176,4.176,0,0,1-2.585,2.807,17.733,17.733,0,0,1-5.371,1.474l-1.9-3.917a13.14,13.14,0,0,0,4.685-.606,3.045,3.045,0,0,0,1.353-.969,5.528,5.528,0,0,1-3.554.222,3.023,3.023,0,0,1-2.059-1.777,3.964,3.964,0,0,1-.263-2.524A4.126,4.126,0,0,1,4.282,8.036,4.079,4.079,0,0,1,6.22,7.027,4.166,4.166,0,0,1,8.5,7.188V6.522H0ZM7.311,10.2a.488.488,0,0,0-.323.343,1,1,0,0,0,0,.4.442.442,0,0,0,.4.364,2.741,2.741,0,0,0,1.091-.1.488.488,0,0,0,.283-.283,1.027,1.027,0,0,0,0-.4.438.438,0,0,0-.323-.323A2.019,2.019,0,0,0,7.311,10.2Z" transform="translate(13914.999 -254.288)"/><path class="a" d="M78.578,17.8q-4.4-4.442-8.218-9.147a1.044,1.044,0,0,0-.929-.4,1.1,1.1,0,0,0-.868.525l-3.937,5.371-2.706-3.574,4.886-6.058A3.2,3.2,0,0,1,69.249,3.3a3.149,3.149,0,0,1,2.524,1.07,81.329,81.329,0,0,0,9.47,9.934ZM76.437,6.875A20.89,20.89,0,0,0,74.8,3.806l1.979-1.272A6.816,6.816,0,0,1,78.6,5.624Zm2.685-1.393a25.338,25.338,0,0,0-1.959-3.291l2-1.171a18.917,18.917,0,0,1,1.878,3.109Z" transform="translate(13882.081 -254.944)"/><path class="a" d="M146.653,20.613a31.744,31.744,0,0,1-7.35-.485,6.443,6.443,0,0,1-3.685-2.282,6.376,6.376,0,0,1-1.464-4.079,10.9,10.9,0,0,1,2.665-6.522h-6.28v-4.3h17.668v4.2l-3.857.4a9.648,9.648,0,0,0-5.129,2.322,4.089,4.089,0,0,0-1.141,2.09,4.153,4.153,0,0,0,.192,2.373,3.252,3.252,0,0,0,1.111,1.484,3.037,3.037,0,0,0,1.736.616,34.985,34.985,0,0,0,5.694-.02Z" transform="translate(13843.46 -256.183)"/><path class="a" d="M198.737,1.982l3.917.787a34.016,34.016,0,0,0-.666,16.962l-3.917.686A43.691,43.691,0,0,1,198.737,1.982ZM207.6,2.1h3.816V5.718h3.352l.02,3.917h-3.372v4.018a13.5,13.5,0,0,1,3.918,2.645l-2.12,3.554a11.488,11.488,0,0,0-1.979-1.878,3.757,3.757,0,0,1-2.585,2.4,7.08,7.08,0,0,1-4.22-.484,3.7,3.7,0,0,1-1.555-1.313,3.935,3.935,0,0,1-.666-1.938,4.348,4.348,0,0,1,.778-2.383,4.108,4.108,0,0,1,1.928-1.535A4.92,4.92,0,0,1,207.6,12.5V9.635h-4.745v-3.9H207.6ZM207.52,16l-.364-.141a.89.89,0,0,0-.646,0,.868.868,0,0,0-.424.484.84.84,0,0,0,.04.626.472.472,0,0,0,.485.3.579.579,0,0,0,.525-.3A7.707,7.707,0,0,0,207.52,16Z" transform="translate(13805.609 -255.563)"/><path class="a" d="M317.858,84.85l3.816.242q-.141,1.858-.283,3.574h2.867v1.756a21.1,21.1,0,0,1,6.5.2V94.7a21.581,21.581,0,0,0-8.561.182V92.927h-1.474a51.825,51.825,0,0,1-3.675,11.206l-3.816-1.878a46.263,46.263,0,0,0,3.352-9.329h-2.908v-4.26h3.736Q317.676,87.091,317.858,84.85ZM330.8,99.206l.283,4.079a19.822,19.822,0,0,1-8.44.2,3.036,3.036,0,0,1-1.777-.949,3.129,3.129,0,0,1-.828-1.8,8.262,8.262,0,0,1,.525-4.2l3.8.727a2.114,2.114,0,0,0-.242,1.575.9.9,0,0,0,.828.807A16.448,16.448,0,0,0,330.8,99.206Z" transform="translate(13601.766 -285.579)"/><path class="a" d="M381.26,86.646l3.735-1.635.888,3.392a13.989,13.989,0,0,1,3.958-.807,25.218,25.218,0,0,0,.384-3.029l4.1.707q-.344,2.08-.545,2.908a6.962,6.962,0,0,1,3.513,2.322,7.489,7.489,0,0,1,1.767,4.452,7.258,7.258,0,0,1-1.242,4.594,10.974,10.974,0,0,1-4.786,4.059,4.9,4.9,0,0,1-2.948.4l-1.615-3.836a8.426,8.426,0,0,1-2.6,2.322,3.894,3.894,0,0,1-3.15.323,3.779,3.779,0,0,1-2.362-2.08,8.363,8.363,0,0,1-.687-5.412,8.622,8.622,0,0,1,2.746-4.786Zm2.705,8.158a9.53,9.53,0,0,0-.444,3.11.617.617,0,0,0,.424.616.653.653,0,0,0,.747-.131l.586-.565Zm2.746-3.614,1.03,2.928,1.393-3.675A6.129,6.129,0,0,0,386.711,91.189Zm6.138.323a33.055,33.055,0,0,1-4.1,8.259,7.336,7.336,0,0,0,2.383-.1,6.568,6.568,0,0,0,2.625-1.333,3.451,3.451,0,0,0,1.343-2.2,3.414,3.414,0,0,0-.475-2.524A6.982,6.982,0,0,0,392.85,91.512Z" transform="translate(13579.512 -285.396)"/><path class="a" d="M453.133,86.322l3.937.4a38.954,38.954,0,0,0-.4,17.183l-4.018.646A38.69,38.69,0,0,1,453.133,86.322Zm4.664,9.389,3.736.929a3.921,3.921,0,0,0-.232.555,6.663,6.663,0,0,0-.232.636,1.52,1.52,0,0,0,1.454,1.878,34.671,34.671,0,0,0,6.2-.343v4.059a25.807,25.807,0,0,1-8.077.141,4.647,4.647,0,0,1-3.655-4.462A10.1,10.1,0,0,1,457.8,95.711Zm.041-7.936a65.6,65.6,0,0,0,10.419.061v4.2a53.781,53.781,0,0,1-10.419-.242Z" transform="translate(13552.214 -286.526)"/></g></svg>