<svg xmlns="http://www.w3.org/2000/svg" width="499.284" height="141.395" viewBox="0 0 499.284 141.395"><defs><style>.a{isolation:isolate;}.b{fill:#fff;}</style></defs><g transform="translate(-733 -462.242)"><g class="a" transform="translate(732.995 464.242)"><g class="a"><path class="b" d="M6.236,90.287H42.882l-1.7,31.719H53.417v11.611H0V122.006H28.892l1.076-19.938H6.236Z"/><path class="b" d="M67.007,106.543h36.986v10.875H67.007Z"/><path class="b" d="M129.306,85.643h11.158V97.82h10.252V85.643h10.932V97.82h10.535V109.6H161.648a40.127,40.127,0,0,1-1.529,13.2,17.773,17.773,0,0,1-6.571,9.4,41.857,41.857,0,0,1-15.972,7.194l-7.534-10.706a63.823,63.823,0,0,0,13.991-3.851,9,9,0,0,0,5.381-5.664,32.586,32.586,0,0,0,1.3-9.572H140.464v10.761H129.306V109.6H119.054V97.99h10.252Zm35.57,11.5a55.369,55.369,0,0,0-3.115-9.233l6.061-2.6a19.266,19.266,0,0,1,3.625,9.345Zm8.1-2.606a72.064,72.064,0,0,0-3.908-10.025l6.06-2.322a50.43,50.43,0,0,1,3.739,9.458Z"/><path class="b" d="M188.836,106.543h36.986v10.875H188.836Z"/><path class="b" d="M273.735,138.375l-5.1-10.082a18,18,0,0,1-5.664,6.74,10.62,10.62,0,0,1-6.712,1.841,10.264,10.264,0,0,1-6.485-2.69,21.478,21.478,0,0,1-6.032-8.383,22.315,22.315,0,0,1-1.5-10.309,32.4,32.4,0,0,1,11.838-23.506,27.218,27.218,0,0,1,9.628-5.352A26.617,26.617,0,0,1,274.7,85.586a23.742,23.742,0,0,1,16.312,8.836,26.6,26.6,0,0,1,5.891,21.014,24.422,24.422,0,0,1-3.71,10.308,24.166,24.166,0,0,1-7.788,7.533A54.823,54.823,0,0,1,273.735,138.375Zm-8.5-39.535a12.866,12.866,0,0,0-8.893,5.834,19.519,19.519,0,0,0-2.039,16.369,2.051,2.051,0,0,0,.765,1.331,2.135,2.135,0,0,0,1.557.481,2.088,2.088,0,0,0,1.53-.509,1.9,1.9,0,0,0,.736-1.36A82.01,82.01,0,0,0,265.239,98.84Zm11.215,0a75.219,75.219,0,0,1-7.93,29.226,20,20,0,0,0,14.443-7.646,18.966,18.966,0,0,0,.68-15.69A12.091,12.091,0,0,0,276.454,98.84Z"/><path class="b" d="M326.2,84.85l10.705.679q-.4,5.212-.793,10.026h8.043v4.927a59.2,59.2,0,0,1,18.238.567V112.49a60.537,60.537,0,0,0-24.015.51v-5.494h-4.135a145.373,145.373,0,0,1-10.309,31.435l-10.7-5.267a129.771,129.771,0,0,0,9.4-26.168H314.48V95.555h10.479Q325.694,91.136,326.2,84.85Zm36.307,40.271.793,11.442a55.6,55.6,0,0,1-23.676.566,8.517,8.517,0,0,1-4.984-2.662,8.777,8.777,0,0,1-2.323-5.041,23.177,23.177,0,0,1,1.473-11.781l10.648,2.039a5.93,5.93,0,0,0-.679,4.418,2.52,2.52,0,0,0,2.322,2.265A46.138,46.138,0,0,0,362.512,125.121Z"/><path class="b" d="M384.457,90.4l10.478-4.587,2.492,9.515a39.242,39.242,0,0,1,11.1-2.265,70.741,70.741,0,0,0,1.076-8.5l11.5,1.983q-.965,5.833-1.529,8.156a19.53,19.53,0,0,1,9.855,6.514,21.008,21.008,0,0,1,4.956,12.489,20.362,20.362,0,0,1-3.483,12.886,30.783,30.783,0,0,1-13.424,11.385,13.738,13.738,0,0,1-8.27,1.132l-4.531-10.761a23.635,23.635,0,0,1-7.306,6.513,10.922,10.922,0,0,1-8.836.907,10.6,10.6,0,0,1-6.627-5.834,23.46,23.46,0,0,1-1.926-15.18,24.186,24.186,0,0,1,7.7-13.424Zm7.589,22.883a26.735,26.735,0,0,0-1.246,8.723,1.732,1.732,0,0,0,1.19,1.727,1.831,1.831,0,0,0,2.1-.368l1.643-1.586Zm7.7-10.138,2.888,8.212,3.908-10.308A17.192,17.192,0,0,0,399.75,103.145Zm17.218.906a92.723,92.723,0,0,1-11.5,23.166,20.579,20.579,0,0,0,6.684-.283,18.423,18.423,0,0,0,7.363-3.739,9.681,9.681,0,0,0,3.767-6.174,9.577,9.577,0,0,0-1.331-7.08A19.59,19.59,0,0,0,416.968,104.051Z"/><path class="b" d="M455.563,86.322l11.044,1.133a109.267,109.267,0,0,0-1.132,48.2L454.2,137.469A108.532,108.532,0,0,1,455.563,86.322Zm13.083,26.338,10.479,2.606a11.005,11.005,0,0,0-.651,1.557,18.724,18.724,0,0,0-.652,1.784,4.264,4.264,0,0,0,4.078,5.268,97.256,97.256,0,0,0,17.389-.963V134.3a72.39,72.39,0,0,1-22.656.4,13.035,13.035,0,0,1-10.252-12.517A28.323,28.323,0,0,1,468.646,112.66Zm.114-22.26a184,184,0,0,0,29.226.17v11.782a150.859,150.859,0,0,1-29.226-.68Z"/></g></g><g class="a" transform="translate(732.999 462.242)"><g class="a"><path class="b" d="M0,7.08H23.847V0h11.1V7.08h16.2V18.3h-16.2v8.213a9.19,9.19,0,0,1,1.586,3.568,28.278,28.278,0,0,1-.906,13.537,11.715,11.715,0,0,1-7.25,7.873,49.743,49.743,0,0,1-15.066,4.135L7.987,44.633a36.86,36.86,0,0,0,13.141-1.7,8.542,8.542,0,0,0,3.8-2.719,15.507,15.507,0,0,1-9.969.623,8.48,8.48,0,0,1-5.777-4.984,11.12,11.12,0,0,1-.737-7.081,11.573,11.573,0,0,1,3.569-6.23,11.441,11.441,0,0,1,5.437-2.832,11.687,11.687,0,0,1,6.4.453V18.3H0ZM20.5,28.6a1.369,1.369,0,0,0-.906.962,2.807,2.807,0,0,0,0,1.133,1.24,1.24,0,0,0,1.132,1.02,7.688,7.688,0,0,0,3.059-.283,1.369,1.369,0,0,0,.793-.793,2.881,2.881,0,0,0,0-1.133,1.229,1.229,0,0,0-.906-.906A5.664,5.664,0,0,0,20.5,28.6Z"/><path class="b" d="M108.648,48.088Q96.3,35.627,85.6,22.43A2.928,2.928,0,0,0,82.99,21.3a3.089,3.089,0,0,0-2.436,1.473L69.509,37.836l-7.59-10.025L75.626,10.818a8.985,8.985,0,0,1,6.854-3.4,8.834,8.834,0,0,1,7.08,3,228.137,228.137,0,0,0,26.565,27.867Zm-6-30.643a58.6,58.6,0,0,0-4.588-8.609l5.551-3.568a19.12,19.12,0,0,1,5.1,8.666Zm7.533-3.908A71.074,71.074,0,0,0,104.683,4.3l5.608-3.285a53.061,53.061,0,0,1,5.267,8.722Z"/><path class="b" d="M175.739,52.506a89.045,89.045,0,0,1-20.617-1.36,18.073,18.073,0,0,1-10.337-6.4,17.885,17.885,0,0,1-4.106-11.441,30.585,30.585,0,0,1,7.476-18.3H130.54V2.945H180.1V14.727l-10.819,1.132A27.064,27.064,0,0,0,154.9,22.373a11.469,11.469,0,0,0-3.2,5.862,11.648,11.648,0,0,0,.538,6.656,9.122,9.122,0,0,0,3.116,4.163,8.52,8.52,0,0,0,4.871,1.727,98.136,98.136,0,0,0,15.972-.056Z"/><path class="b" d="M201.166,1.982l10.988,2.209a95.419,95.419,0,0,0-1.869,47.579L199.3,53.695A122.556,122.556,0,0,1,201.166,1.982Zm24.865.34h10.7V12.461h9.4l.056,10.988h-9.459V34.721a37.857,37.857,0,0,1,10.989,7.42l-5.948,9.968a32.228,32.228,0,0,0-5.55-5.267,10.539,10.539,0,0,1-7.25,6.74,19.86,19.86,0,0,1-11.838-1.359,10.367,10.367,0,0,1-4.362-3.682,11.039,11.039,0,0,1-1.869-5.437,12.2,12.2,0,0,1,2.181-6.684,11.523,11.523,0,0,1,5.409-4.3,13.8,13.8,0,0,1,7.533-.623V23.449h-13.31V12.518h13.31ZM225.8,41.291l-1.02-.4a2.5,2.5,0,0,0-1.812,0,2.434,2.434,0,0,0-1.19,1.359,2.356,2.356,0,0,0,.113,1.756,1.324,1.324,0,0,0,1.36.849,1.624,1.624,0,0,0,1.473-.849A21.606,21.606,0,0,0,225.8,41.291Z"/></g></g></g></svg>