<svg xmlns="http://www.w3.org/2000/svg" width="335" height="23.536" viewBox="0 0 335 23.536"><defs><style>.a{fill:#fff;}</style></defs><path class="a" d="M10.109-11.218l-.339-5.518a5.827,5.827,0,0,0-.277-1.527,2.086,2.086,0,0,0-.705-1.018,2.105,2.105,0,0,0-1.3-.366H5.3V-23H7.716a2,2,0,0,0,1.714-.7,3.6,3.6,0,0,0,.482-2.071v-1.821a4.205,4.205,0,0,0-.455-2.223,1.856,1.856,0,0,0-1.688-.705H5.216V-34.04H8.055q3.125,0,4.536,1.482A5.9,5.9,0,0,1,14-28.326v1.589a5.213,5.213,0,0,1-.848,3.152,3.715,3.715,0,0,1-2.723,1.366v.518l-1.018-.518a5.018,5.018,0,0,1,2.58.821A3.517,3.517,0,0,1,13.216-19.6a13.169,13.169,0,0,1,.5,2.777l.5,5.607Zm-7.75,0V-34.04H6.412V-22L6.43-20.29v9.071Zm17.232,0V-34.04h4.036v22.821Zm2.607,0v-3.661h6.821v3.661Zm.089-9.839v-3.571h6.571v3.571Zm-.107-9.357V-34.04h6.839v3.625ZM39.716-10.861a4.981,4.981,0,0,1-4.295-1.8,8.9,8.9,0,0,1-1.33-5.321v-9.375a8.492,8.492,0,0,1,1.375-5.259,4.974,4.974,0,0,1,4.2-1.777,6.794,6.794,0,0,1,1.4.134,5.432,5.432,0,0,1,1.125.357,4.634,4.634,0,0,1,.83.473l.25,3.75a5.391,5.391,0,0,0-1.1-.634,3.458,3.458,0,0,0-1.384-.259,2.077,2.077,0,0,0-1.946.929,5.115,5.115,0,0,0-.554,2.607v8.8a4.622,4.622,0,0,0,.6,2.563,2.289,2.289,0,0,0,2.063.9,3.55,3.55,0,0,0,1.393-.25,4.77,4.77,0,0,0,1.071-.625l-.268,3.875a5.875,5.875,0,0,1-.848.429,6.189,6.189,0,0,1-1.17.348A7.1,7.1,0,0,1,39.716-10.861Zm16.625-.357L56-16.736a5.827,5.827,0,0,0-.277-1.527,2.086,2.086,0,0,0-.705-1.018,2.105,2.105,0,0,0-1.3-.366H51.537V-23h2.411a2,2,0,0,0,1.714-.7,3.6,3.6,0,0,0,.482-2.071v-1.821a4.205,4.205,0,0,0-.455-2.223A1.856,1.856,0,0,0,54-30.522H51.448V-34.04h2.839q3.125,0,4.536,1.482a5.9,5.9,0,0,1,1.411,4.232v1.589a5.213,5.213,0,0,1-.848,3.152,3.715,3.715,0,0,1-2.723,1.366v.518l-1.018-.518a5.018,5.018,0,0,1,2.58.821A3.517,3.517,0,0,1,59.448-19.6a13.169,13.169,0,0,1,.5,2.777l.5,5.607Zm-7.75,0V-34.04h4.054V-22l.018,1.714v9.071Zm23.179.357a5.765,5.765,0,0,1-4.625-1.768,7.779,7.779,0,0,1-1.518-5.2V-34.04H69.8v16.589a4.637,4.637,0,0,0,.446,2.295,1.6,1.6,0,0,0,1.5.759,1.614,1.614,0,0,0,1.527-.759,4.717,4.717,0,0,0,.438-2.295V-34.04h4.161v16.214a7.811,7.811,0,0,1-1.509,5.2A5.714,5.714,0,0,1,71.769-10.861Zm16.268-.357H83.859V-34.04h4.179Zm8.625,0V-34.04h4.161v22.821ZM93.109-30.343v-3.7h11.268v3.7Zm20.5,19.125H109.43V-34.04h4.179Zm11.875-22.839,3.482,18.125h.179L128.841-27v-7.054h3.8v22.839h-5.732l-3.5-18.321h-.179l.321,11.268v7.054h-3.821V-34.058Zm17.321,23.2a3.983,3.983,0,0,1-2.6-.795,4.432,4.432,0,0,1-1.4-2.295,13.256,13.256,0,0,1-.429-3.607v-9.268q0-3.8,1.688-5.688a6.332,6.332,0,0,1,4.973-1.884,8.831,8.831,0,0,1,1.786.17,8.55,8.55,0,0,1,1.482.437,4.926,4.926,0,0,1,1.071.571l.3,3.8a7.23,7.23,0,0,0-1.571-.848,5.517,5.517,0,0,0-2.071-.366,3.323,3.323,0,0,0-2.714,1,4.616,4.616,0,0,0-.821,2.982v9.25a4,4,0,0,0,.455,2.125,1.6,1.6,0,0,0,1.455.714,1.8,1.8,0,0,0,.973-.241,1.764,1.764,0,0,0,.616-.67,3.46,3.46,0,0,0,.339-.929v-6.464l.7,1.732h-2.393v-3.393h5.393v10.464h-3.732a6.554,6.554,0,0,1-.536,1.6,2.809,2.809,0,0,1-1.062,1.161A3.584,3.584,0,0,1,142.805-10.861Zm3.714-4.107h3.518v3.75h-3.661Zm21.357,3.75H163.7V-34.04h4.179Zm11.875-22.839,3.482,18.125h.179L183.109-27v-7.054h3.8v22.839H181.18l-3.5-18.321H177.5l.321,11.268v7.054H174V-34.058ZM193-11.218V-34.04h4.125v22.821Zm2.7-8.857v-3.732h6.143v3.732Zm-.107-10.232V-34.04h6.429v3.732ZM213.18-10.861a5.849,5.849,0,0,1-4.688-1.795,7.978,7.978,0,0,1-1.545-5.33v-9.268a8.015,8.015,0,0,1,1.545-5.339,5.834,5.834,0,0,1,4.688-1.8,5.834,5.834,0,0,1,4.688,1.8,8.015,8.015,0,0,1,1.545,5.339v9.268a7.978,7.978,0,0,1-1.545,5.33A5.849,5.849,0,0,1,213.18-10.861Zm0-3.518a1.663,1.663,0,0,0,1.58-.8,4.971,4.971,0,0,0,.455-2.393V-27.683a4.962,4.962,0,0,0-.455-2.4,1.668,1.668,0,0,0-1.58-.795,1.668,1.668,0,0,0-1.58.795,4.962,4.962,0,0,0-.455,2.4v10.107a4.971,4.971,0,0,0,.455,2.393A1.663,1.663,0,0,0,213.18-14.379Zm19.732,3.161-.339-5.518a5.827,5.827,0,0,0-.277-1.527,2.086,2.086,0,0,0-.705-1.018,2.105,2.105,0,0,0-1.3-.366h-2.179V-23h2.411a2,2,0,0,0,1.714-.7,3.6,3.6,0,0,0,.482-2.071v-1.821a4.205,4.205,0,0,0-.455-2.223,1.856,1.856,0,0,0-1.687-.705h-2.554V-34.04h2.839q3.125,0,4.536,1.482a5.9,5.9,0,0,1,1.411,4.232v1.589a5.213,5.213,0,0,1-.848,3.152,3.715,3.715,0,0,1-2.723,1.366v.518l-1.018-.518a5.018,5.018,0,0,1,2.58.821,3.517,3.517,0,0,1,1.223,1.795,13.168,13.168,0,0,1,.5,2.777l.5,5.607Zm-7.75,0V-34.04h4.054V-22l.018,1.714v9.071Zm17.179,0L242.5-34.04h5.75l2.446,14.5h.143l2.375-14.5h5.768l.161,22.821h-3.839l-.018-6.554.125-11.089h-.161l-2.661,15.089h-3.714l-2.643-15.089h-.161l.125,11.089-.018,6.554Zm21.8,0L267.43-34.04h6.5l3.321,22.821H273.2l-2.321-19.857h-.393L268.2-11.218Zm3.411-5.714v-3.3h6.232v3.3Zm15.964,5.714V-34.04h4.161v22.821Zm-3.554-19.125v-3.7h11.268v3.7Zm20.5,19.125h-4.179V-34.04h4.179Zm12,.357a5.85,5.85,0,0,1-4.688-1.795,7.978,7.978,0,0,1-1.545-5.33v-9.268a8.015,8.015,0,0,1,1.545-5.339,5.834,5.834,0,0,1,4.688-1.8,5.834,5.834,0,0,1,4.688,1.8,8.015,8.015,0,0,1,1.545,5.339v9.268a7.978,7.978,0,0,1-1.545,5.33A5.849,5.849,0,0,1,312.466-10.861Zm0-3.518a1.663,1.663,0,0,0,1.58-.8,4.971,4.971,0,0,0,.455-2.393V-27.683a4.963,4.963,0,0,0-.455-2.4,1.668,1.668,0,0,0-1.58-.795,1.668,1.668,0,0,0-1.58.795,4.962,4.962,0,0,0-.455,2.4v10.107a4.971,4.971,0,0,0,.455,2.393A1.663,1.663,0,0,0,312.466-14.379ZM330.2-34.058l3.482,18.125h.179L333.555-27v-7.054h3.8v22.839h-5.732l-3.5-18.321h-.179l.321,11.268v7.054h-3.821V-34.058Z" transform="translate(-2.358 34.397)"/></svg>