<svg xmlns="http://www.w3.org/2000/svg" xmlns:xlink="http://www.w3.org/1999/xlink" width="143.304" height="26.74" viewBox="0 0 143.304 26.74">
  <defs>
    <linearGradient id="linear-gradient" x1="0.5" x2="1" y2="1.839" gradientUnits="objectBoundingBox">
      <stop offset="0" stop-color="#4bacff"/>
      <stop offset="1" stop-color="#aeeef2"/>
    </linearGradient>
  </defs>
  <path id="パス_8254" data-name="パス 8254" d="M4.9-10.892l.168-1.848H10.22V-22.4H1.484v3.584H6.356v2.464H1.792c-.14,3.22-.5,7.224-.9,9.828l3.5.532q.084-.672.168-1.428H6.356c-.2,3.78-.42,5.432-.84,5.852a1.142,1.142,0,0,1-.98.364c-.56,0-1.624,0-2.744-.112A9.689,9.689,0,0,1,3.024,2.66a19.806,19.806,0,0,0,3.388-.14A3.211,3.211,0,0,0,8.708,1.2C9.548.168,9.856-2.772,10.136-9.408c.028-.476.056-1.484.056-1.484Zm9.772,2.268v-1.792h1.764v1.792Zm7.5-1.792v1.792H20.328v-1.792ZM27.664,1.26a24.467,24.467,0,0,0-3.5-6.608l-3.3,1.372q.42.63.84,1.344l-1.372.084v-2.8H26.04V-13.72H20.328v-2.072l2.828-.252a9.134,9.134,0,0,1,.672,1.624l3.7-1.652a24.335,24.335,0,0,0-3.948-6.188L20.16-20.776c.336.42.672.9,1.008,1.372l-3.948.224c.784-1.176,1.568-2.492,2.3-3.808l-4.4-.98a32.237,32.237,0,0,1-2.24,4.984l-2.464.112.5,3.808c1.624-.112,3.5-.252,5.516-.42v1.764H11v8.372h5.432V-2.3c-2.38.168-4.592.28-6.384.364l.476,3.92c3.556-.252,8.344-.616,12.964-1.036a13.474,13.474,0,0,1,.588,1.82Zm7.28-22.82.168,4.34c.756-.112,1.848-.224,2.408-.252,1.26-.084,3.136-.14,4.256-.168-.532,1.092-1.2,2.716-1.876,4.284-5.684.336-9.716,3.752-9.716,8.176,0,3.136,2.016,4.928,4.676,4.928A5.333,5.333,0,0,0,39.7-3a53.282,53.282,0,0,0,2.968-6.356A18.228,18.228,0,0,1,48.524-7.28c-.98,2.3-2.912,4.76-7,6.524l3.64,2.94a14.524,14.524,0,0,0,6.916-7.14c.756.588,1.456,1.176,2.128,1.792L56.168-7.9c-.756-.5-1.68-1.092-2.772-1.736a43.82,43.82,0,0,0,.5-5.04l-4.452-.5a18.547,18.547,0,0,1,.028,3.332c0,.084-.028.2-.028.308a24.779,24.779,0,0,0-5.18-1.54,57.832,57.832,0,0,1,2.6-5.628,7.76,7.76,0,0,1,1.064-1.288l-2.688-2.1a8.084,8.084,0,0,1-2.212.476c-1.372.112-3.948.2-5.628.2C36.792-21.42,35.728-21.476,34.944-21.56ZM34.132-5.852c0-1.428,1.456-3,4.032-3.528a28.768,28.768,0,0,1-1.792,3.7c-.476.672-.812.952-1.316.952C34.524-4.732,34.132-5.1,34.132-5.852ZM67.844-22.624l-4.256,1.736c1.232,2.912,2.548,5.8,3.836,8.2-2.576,1.932-4.564,4.256-4.564,7.42,0,5.18,4.452,6.72,10.22,6.72a53.812,53.812,0,0,0,9.072-.7l.056-4.9a46.3,46.3,0,0,1-9.24,1.092c-3.584,0-5.376-.868-5.376-2.716s1.568-3.332,3.724-4.76a79.377,79.377,0,0,1,7.42-3.892c1.148-.56,2.156-1.12,3.136-1.708l-2.352-3.92a21.036,21.036,0,0,1-2.912,1.9c-1.2.7-3.332,1.792-5.376,2.968A57.166,57.166,0,0,1,67.844-22.624Zm39.872,12.1h-8.68l-.224-1.428-2.212.588v-3.64h1.512V-12.6h9.6Zm6.916-2.072v-3.752h-6.1v-1.736h4.9v-3.668h-4.9v-2.212H104.5v2.212h-4.7v3.668h4.7v1.736h-5.88v-2.52H96.6V-23.94H92.876v5.068h-.784c.14-1.036.252-2.072.336-3.08l-3.36-.56a34.827,34.827,0,0,1-1.428,8.9,23.471,23.471,0,0,1,2.828,1.848,22.782,22.782,0,0,0,.952-3.248h1.456v4.648c-1.848.476-3.528.9-4.9,1.176l.952,3.892c1.2-.336,2.548-.728,3.948-1.148v9.1H96.6V-7.532L98.784-8.2v1.4H101.7L99.512-5.432a24.7,24.7,0,0,1,3.052,4.312l3.192-2.1A23.476,23.476,0,0,0,102.984-6.8h4.732V-1.82c0,.364-.14.448-.588.448s-1.988,0-3.192-.056a15.143,15.143,0,0,1,1.2,4.032,11.75,11.75,0,0,0,5.012-.7c1.26-.616,1.6-1.708,1.6-3.64V-6.8H114.3v-3.724h-2.548V-12.6Zm6.8-11.368a18.756,18.756,0,0,1-4.592,5.236,24.627,24.627,0,0,1,1.988,3.136,30.124,30.124,0,0,0,6.244-7Zm13.02,20.1c-1.064.084-2.128.14-3.164.2V-5.1h2.6v-3h-2.6V-9.464h3.024V-10.78A19.077,19.077,0,0,1,135.464-8.9c.2-.252.364-.532.56-.84a37.219,37.219,0,0,0,1.036,4.452,12.333,12.333,0,0,1-2.576,3.584Zm4.816-11.284a43.166,43.166,0,0,1-.56,4.648c-.28-1.2-.476-2.436-.644-3.724.112-.308.2-.616.28-.924Zm4.536,0v-3.388h-4.564c.336-1.568.588-3.164.812-4.788l-3.7-.588a37.024,37.024,0,0,1-1.736,8.624v-6.188h-2.772v4.564h-.672v-7h-3.248v7h-.644v-4.62h-2.66v4.648L121.8-17.892a24.257,24.257,0,0,1-5.1,7.252,25.253,25.253,0,0,1,2.1,3.752c.392-.392.756-.812,1.148-1.26V2.688h3.668V-13.44c.364-.616.7-1.2,1.008-1.82v1.428h9.38a8.983,8.983,0,0,1-.672,1.26h-8.484v3.108H127.9v1.372h-2.716v3H127.9v1.624c-1.372.056-2.632.112-3.668.168l.5,3.444c2.408-.224,5.432-.476,8.428-.784-.364.252-.728.476-1.12.7A17.477,17.477,0,0,1,134.6,2.744a14.771,14.771,0,0,0,4.116-4,12.248,12.248,0,0,0,3.024,3.7A12.668,12.668,0,0,1,144.2-.616a10.8,10.8,0,0,1-3.584-4.2A35.639,35.639,0,0,0,142.8-15.148Z" transform="translate(-0.896 23.968)" fill="url(#linear-gradient)"/>
</svg>
