<svg xmlns="http://www.w3.org/2000/svg" xmlns:xlink="http://www.w3.org/1999/xlink" width="229.852" height="26.852" viewBox="0 0 229.852 26.852">
  <defs>
    <linearGradient id="linear-gradient" x1="0.5" x2="1.033" y2="1.354" gradientUnits="objectBoundingBox">
      <stop offset="0" stop-color="#4bacff"/>
      <stop offset="1" stop-color="#aeeef2"/>
    </linearGradient>
  </defs>
  <path id="パス_8257" data-name="パス 8257" d="M16.268-2.184V-6.776h7.644V-10.7H16.268V-14.84H25.34v-3.976H16.6l1.54-1.12A32.134,32.134,0,0,0,12.6-24.08L9.212-21.7a39.418,39.418,0,0,1,3.752,2.884H2.52v3.976h9.24V-10.7H4.116v3.92H11.76v4.592H1.372v4h25.34v-4ZM42.644-22.736,38-23.184a22.3,22.3,0,0,1-.7,4.564q-1.092.084-2.184.084c-.924,0-2.6-.056-3.892-.2l.308,3.92c1.288.084,2.436.112,3.612.112.308,0,.588,0,.9-.028a45.092,45.092,0,0,1-5.544,9.576L34.58-3.08a51.5,51.5,0,0,0,5.936-12.068,38.206,38.206,0,0,0,4.76-.952l-.112-3.892c-.952.28-2.128.56-3.444.812C42.112-20.58,42.448-21.868,42.644-22.736Zm-1.4,19.348c0-.812.868-1.372,2.24-1.372a10.444,10.444,0,0,1,1.9.2v.14c0,1.568-.5,2.548-2.184,2.548C42.028-1.876,41.244-2.492,41.244-3.388ZM49.2-13.972H44.94c.084,1.568.2,3.892.308,5.88a12.818,12.818,0,0,0-1.484-.084c-4.312,0-6.524,2.408-6.524,5.208,0,3.248,2.884,4.984,6.58,4.984,4.144,0,5.6-2.016,5.684-4.7A29.9,29.9,0,0,1,52.892.168l2.24-3.64a18.233,18.233,0,0,0-5.8-3.64c-.056-1.176-.112-2.268-.14-2.94C49.168-11.424,49.112-12.768,49.2-13.972Zm4.368,1.9,2.408-3.584a56.662,56.662,0,0,0-7.14-3.836l-2.184,3.36A40.694,40.694,0,0,1,53.564-12.068ZM67.676-20.1v.952H64.26V-20.1ZM64.26-15.54v-1.036h3.416v1.036Zm7.224,2.856V-22.932h-11.2V2.66H64.26V-12.684Zm-.28,6.02v-1.6h1.848v1.6Zm8.12,3.276V-6.664H76.608v-1.6h2.324v-3.164H65.548V-8.26H67.76v1.6H65.184v3.276h2.408A6,6,0,0,1,65.016.42a13.594,13.594,0,0,1,2.576,2.3,9.248,9.248,0,0,0,3.5-6.1h1.96V2.156h3.556V-3.388ZM76.8-15.456v-1.12h3.528v1.12ZM80.332-20.1v.952H76.8V-20.1Zm4-2.828H72.94V-12.6h7.392V-1.96c0,.392-.14.56-.56.56s-1.764,0-2.828-.056a13.939,13.939,0,0,1,1.176,4c2.156.028,3.64-.084,4.788-.756,1.12-.672,1.428-1.764,1.428-3.7ZM102.592-8.26H99.9v-2.6h2.688Zm6.384-2.6v-.784a17.66,17.66,0,0,0,3.136,1.9,15.666,15.666,0,0,1,2.828-3.528,17.426,17.426,0,0,1-3.864-2.184,41.205,41.205,0,0,0,3.332-2.688l-2.968-2.072a29.765,29.765,0,0,1-2.66,2.66,10.927,10.927,0,0,1-.924-1.064c1.036-.756,2.184-1.708,3.276-2.66l-3.052-2.128a21.968,21.968,0,0,1-1.96,2.128,17.551,17.551,0,0,1-1.2-2.66L101.248-22.9a27.051,27.051,0,0,0,4.564,8.2H97.1a20.158,20.158,0,0,0,3.976-7.14l-2.716-1.232-.7.14H90.692v3.472h4.984a16.777,16.777,0,0,1-1.288,1.848c-.7-.588-1.6-1.232-2.268-1.708l-2.548,2.1c.756.616,1.736,1.428,2.408,2.072a16.672,16.672,0,0,1-4.088,2.492A15.1,15.1,0,0,1,90.356-9.6a20.829,20.829,0,0,0,3.472-2.1v.84h2.044v2.6h-5.74v3.724h5.04c-.784,1.6-2.436,3.052-5.824,4.06a14.948,14.948,0,0,1,2.576,3.248c5.04-1.652,6.972-4.4,7.644-7.308h3.024v2.212c0,3.612.812,4.816,4.228,4.816h2.744c2.688,0,3.724-1.2,4.116-4.984a11.474,11.474,0,0,1-3.64-1.568c-.112,2.436-.252,2.968-.9,2.968H107.6c-.672,0-.756-.14-.756-1.26V-4.536h5.6V-8.26h-5.6v-2.6Zm23.94-11.424-4.9-1.512a14.6,14.6,0,0,1-1.484,3.332,26.514,26.514,0,0,1-8.876,9.044L121.324-8.6a34.968,34.968,0,0,0,7.364-7.168h7.2a18.812,18.812,0,0,1-2.66,5.32c-1.624-1.064-3.248-2.072-4.536-2.828l-3.024,3.108c1.26.812,2.912,1.96,4.592,3.192a23.4,23.4,0,0,1-9.912,5.74l3.948,3.416a26.273,26.273,0,0,0,9.632-6.356c1.148.924,2.156,1.792,2.884,2.464l3.248-3.864c-.784-.616-1.876-1.428-3.08-2.3a32.817,32.817,0,0,0,4-7.672,14.665,14.665,0,0,1,1.092-2.3l-3.416-2.128a10.548,10.548,0,0,1-2.772.364h-4.648C131.656-20.328,132.3-21.42,132.916-22.288Zm14.056,10.976,2.1,4.284a55.6,55.6,0,0,0,9.464-3.78v8.2a37.8,37.8,0,0,1-.224,4.06h5.376a20.91,20.91,0,0,1-.28-4.06V-13.636a53.886,53.886,0,0,0,7.476-5.992l-3.668-3.5a37.656,37.656,0,0,1-8.008,6.888A44.378,44.378,0,0,1,146.972-11.312ZM183.148-2.8a31.434,31.434,0,0,1-.336,4.228h5.32c-.14-1.26-.308-3.472-.308-4.228V-10a87.323,87.323,0,0,1,9.632,4l1.932-4.732a92.573,92.573,0,0,0-11.564-4.228v-3.836a33.289,33.289,0,0,1,.28-3.64h-5.292a19.561,19.561,0,0,1,.336,3.64Zm34.44,2.156,2.828,2.324A9.481,9.481,0,0,1,221.76.756a32.335,32.335,0,0,0,9.464-7.588l-2.6-3.752A15.685,15.685,0,0,1,222.4-5.236V-19.012a17.009,17.009,0,0,1,.224-2.632h-5.04a14.651,14.651,0,0,1,.252,2.6V-2.968A10.71,10.71,0,0,1,217.588-.644ZM204.54-1.2l4.144,2.744A16.838,16.838,0,0,0,213.7-6.692c.728-2.828.812-8.68.812-12.124a22.132,22.132,0,0,1,.224-2.828h-4.984a10.862,10.862,0,0,1,.308,2.884c0,3.5-.028,8.652-.812,10.948A12.864,12.864,0,0,1,204.54-1.2Z" transform="translate(-1.372 24.08)" fill="url(#linear-gradient)"/>
</svg>
