<svg xmlns="http://www.w3.org/2000/svg" xmlns:xlink="http://www.w3.org/1999/xlink" width="172.816" height="26.908" viewBox="0 0 172.816 26.908">
  <defs>
    <linearGradient id="linear-gradient" x1="0.152" y1="-0.142" x2="1" y2="1.259" gradientUnits="objectBoundingBox">
      <stop offset="0" stop-color="#4bacff"/>
      <stop offset="1" stop-color="#aeeef2"/>
    </linearGradient>
  </defs>
  <path id="パス_8835" data-name="パス 8835" d="M9.828-8.736C6.5-6.8,2.884-4.816.532-3.668L3.08.084c2.436-1.428,5.46-3.3,8.12-5.1ZM2.352-13.328A25.713,25.713,0,0,1,6.384-8.316l3.332-2.436a26.309,26.309,0,0,0-4.256-4.76Zm19.992-2.52A31.428,31.428,0,0,1,18.368-11a30.166,30.166,0,0,1-2.352-4.648v-.364H26.6v-3.948H23.688l1.288-1.456a32.713,32.713,0,0,0-5.236-2.8l-2.38,2.576c.952.476,2.072,1.064,3.052,1.68h-4.4v-3.948h-4.2v3.948H1.512v3.948h10.3v13.8c0,.5-.2.672-.728.672-.56,0-2.3,0-3.864-.084A17.293,17.293,0,0,1,8.6,2.66c2.52.028,4.424-.112,5.712-.812C15.6,1.176,16.016.056,16.016-2.184V-7.756A22.813,22.813,0,0,0,24.528.84a16.658,16.658,0,0,1,3-3.668,20.417,20.417,0,0,1-6.86-5.152,73.741,73.741,0,0,0,5.292-5.348ZM49.168-22.12l-4.7-.448A16.876,16.876,0,0,1,44.24-19.6c-.056.308-.112.616-.168.952a16.371,16.371,0,0,0-5.88,1.54c-.14-.5-.28-1.008-.42-1.484a28.258,28.258,0,0,1-.616-2.8l-4.452,1.4a19.579,19.579,0,0,1,1.26,3.108l.672,2.1a12.65,12.65,0,0,0-4,8.96c0,3.808,2.324,5.88,4.76,5.88,2.072,0,3.528-.672,5.488-2.716.224.28.476.532.728.84l3.444-2.716c-.476-.448-.952-.98-1.428-1.512a34.729,34.729,0,0,0,3.612-8.484,5.633,5.633,0,0,1,3.808,5.684c0,3.024-1.96,6.216-8.288,6.748l2.6,3.948C51.1.924,55.468-2.492,55.468-8.624a9.516,9.516,0,0,0-7.2-9.688,4.877,4.877,0,0,1,.14-.616C48.608-19.712,48.916-21.308,49.168-22.12ZM34.608-6.188a7.817,7.817,0,0,1,1.54-4.508,30.743,30.743,0,0,0,2.268,4.7c-.9,1.008-1.708,1.624-2.52,1.624C35.056-4.368,34.608-5.1,34.608-6.188Zm4.816-7.252a10.85,10.85,0,0,1,3.612-1.316,28.673,28.673,0,0,1-2.044,4.984A31.334,31.334,0,0,1,39.424-13.44Zm30.1,9.94c0-.56.532-1.12,1.456-1.12,1.176,0,2.016,1.008,2.156,2.548-.392.028-.812.056-1.26.056C70.448-2.016,69.524-2.632,69.524-3.5Zm-5.4-18.228.14,4.4c.672-.112,1.68-.2,2.52-.252,1.512-.112,4.4-.224,5.8-.252-1.344,1.2-3.948,3.22-5.516,4.508-1.652,1.372-4.928,4.144-6.72,5.544l3.08,3.192c2.688-3.276,5.628-5.74,9.716-5.74,3.08,0,5.544,1.512,5.544,3.92a3.656,3.656,0,0,1-1.652,3.22c-.476-2.66-2.66-4.648-6.076-4.648-3.192,0-5.432,2.3-5.432,4.76,0,3.08,3.276,4.928,7.224,4.928,7.252,0,10.416-3.836,10.416-8.2,0-4.228-3.78-7.308-8.6-7.308a9.6,9.6,0,0,0-1.96.168c1.54-1.176,4-3.192,5.572-4.256.7-.5,1.428-.924,2.156-1.372l-2.1-3a14.773,14.773,0,0,1-2.492.336c-1.652.14-7.252.224-8.764.224A23.723,23.723,0,0,1,64.12-21.728ZM98.5-23.38c-.2,3.668.42,16.072-10.724,22.54a13.563,13.563,0,0,1,3.472,3.276,24.749,24.749,0,0,0,9.912-13.16c1.68,4.9,4.816,10.108,10.78,13.132a11.972,11.972,0,0,1,3.136-3.472C104.692-5.992,103.348-17.5,103.124-21.532q.042-1.05.084-1.848Zm34.916,3.612c.336-1.12.644-2.3.9-3.472l-3.668-.7a27.71,27.71,0,0,1-2.912,8.344V-18.7H125.72V-23.94H122V-18.7h-.784c.14-1.036.252-2.072.336-3.08l-3.36-.56a34.827,34.827,0,0,1-1.428,8.9,23.471,23.471,0,0,1,2.828,1.848,22.782,22.782,0,0,0,.952-3.248H122V-10c-1.848.476-3.528.9-4.9,1.176l.952,3.892c1.2-.336,2.548-.728,3.948-1.148V2.66h3.724V-7.168c.924-.28,1.848-.56,2.744-.84l-.532-3.584L125.72-11V-14.84h1.54a14.1,14.1,0,0,1-1.064,1.4,23.336,23.336,0,0,1,3.052,2.268,22.04,22.04,0,0,0,2.8-4.844h.84c-1.232,3.864-3.276,7.7-5.936,9.8a14.572,14.572,0,0,1,3.108,2.268c2.744-2.66,4.984-7.588,6.16-12.068h.756c-1.4,6.328-4.088,12.4-8.512,15.568A13.812,13.812,0,0,1,131.74,1.9c3.808-3.22,6.412-8.988,7.952-14.924-.336,7.308-.756,10.248-1.316,11a1.145,1.145,0,0,1-.98.56,18.686,18.686,0,0,1-2.3-.112,11.037,11.037,0,0,1,1.12,3.976,13.778,13.778,0,0,0,3.192-.168A3.345,3.345,0,0,0,141.736.588C142.772-.84,143.22-5.544,143.7-18c.028-.476.056-1.764.056-1.764Zm17.7-4.172a30.079,30.079,0,0,1-5.292,10.5,31.536,31.536,0,0,1,1.9,4.48q.588-.714,1.176-1.512v13.1h3.864v-20.02a54.149,54.149,0,0,0,2.1-5.432Zm7.364,8.4h2.8V-14h-2.8Zm4.676-3.864a14.268,14.268,0,0,1-.868,1.176h-3.64c.336-.392.644-.784.952-1.176Zm4.928,5.4h-3.192v-1.54h3.192ZM160.524-.644c-.28,0-.588,0-.924-.028q1.344-.8,2.6-1.68a2.33,2.33,0,0,1-.448,1.12A1.279,1.279,0,0,1,160.524-.644Zm9.828-10.3a24.77,24.77,0,0,1-2.1,2.128q-.378-1.218-.672-2.52h4.4v-6.888h-5.432c.644-.84,1.232-1.736,1.736-2.548l-2.352-1.736-.728.224h-3.668c.2-.308.392-.644.56-.952l-3.78-.7a17.191,17.191,0,0,1-5.32,6.132,9.436,9.436,0,0,1,1.848,1.26v5.208h3.668A29.413,29.413,0,0,1,153.5-9.408a23.1,23.1,0,0,1,2.156,2.6,31.322,31.322,0,0,0,3.864-1.764,3.356,3.356,0,0,0,.336.308,26.206,26.206,0,0,1-6.216,2.8,13.3,13.3,0,0,1,1.736,2.492,35.923,35.923,0,0,0,5.992-3.248,3.485,3.485,0,0,1,.28.56,27.416,27.416,0,0,1-8.428,4.368,13.332,13.332,0,0,1,2.072,2.828,29.3,29.3,0,0,0,3.5-1.764,9.006,9.006,0,0,1,.644,2.856c.644.056,1.316.056,1.876.056A4.143,4.143,0,0,0,164.444,1.4c2.044-1.9,2.212-7.812-2.24-11.592a16.442,16.442,0,0,0,1.512-1.148h.476c1.092,5.712,2.884,10.36,6.58,12.964a13.557,13.557,0,0,1,2.576-3.164,10.858,10.858,0,0,1-3.808-4.2,30.289,30.289,0,0,0,3.5-2.772Z" transform="translate(-0.532 24.22)" fill="url(#linear-gradient)"/>
</svg>
