<?xml version="1.0" standalone="no"?>
<!DOCTYPE svg PUBLIC "-//W3C//DTD SVG 20010904//EN"
 "http://www.w3.org/TR/2001/REC-SVG-20010904/DTD/svg10.dtd">
<svg version="1.0" xmlns="http://www.w3.org/2000/svg"
 width="1000.000000pt" height="1000.000000pt" viewBox="0 0 1000.000000 1000.000000"
 preserveAspectRatio="xMidYMid meet">
<metadata>
Created by potrace 1.11, written by Peter Selinger 2001-2013
</metadata>
<g transform="translate(0.000000,1000.000000) scale(0.100000,-0.100000)"
fill="#000000" stroke="none">
<path d="M4610 8989 c-73 -9 -169 -42 -256 -89 -68 -36 -1271 -855 -1420 -967
-425 -317 -508 -869 -195 -1293 23 -30 360 -375 751 -765 l710 -711 -1298 0
c-713 -1 -1324 -3 -1358 -7 -271 -27 -456 -146 -519 -336 -23 -70 -23 -204 -1
-291 34 -129 99 -237 454 -755 193 -280 365 -530 382 -555 17 -25 72 -103 121
-175 143 -209 255 -319 412 -404 307 -165 704 -123 992 106 17 13 350 343 740
734 l711 710 -1 -1283 c0 -706 3 -1314 7 -1353 13 -141 35 -222 86 -319 131
-251 401 -310 710 -156 44 22 198 122 343 222 145 99 325 223 399 273 74 51
213 146 307 211 95 66 226 155 290 199 126 86 257 208 317 293 167 241 210
526 120 800 -28 86 -95 209 -159 292 -24 30 -356 368 -739 750 -383 382 -696
698 -696 701 0 3 591 5 1313 6 952 0 1332 3 1386 12 372 59 548 296 465 626
-23 92 -93 226 -196 376 -51 74 -264 384 -472 688 -209 304 -406 581 -438 615
-142 156 -329 259 -532 296 -94 17 -279 7 -376 -20 -100 -29 -220 -87 -305
-149 -41 -29 -364 -345 -780 -761 l-711 -710 -1 1332 c-1 1317 -1 1334 -22
1428 -12 55 -38 129 -61 176 -96 195 -256 279 -480 253z"/>
</g>
</svg>
