<svg xmlns="http://www.w3.org/2000/svg" width="36" height="36"><defs><style>.a{fill:#fff}</style></defs><path class="a" d="M19.442 23.84a1.5 1.5 0 010-2.122l3.329-3.329-3.329-3.328a1.5 1.5 0 010-2.122 1.5 1.5 0 012.122 0l5.45 5.45-5.451 5.45a1.5 1.5 0 01-2.121 0z"/><path class="a" d="M24.794 19.983H11a1.5 1.5 0 01-1.5-1.5 1.5 1.5 0 011.5-1.5h13.794a1.5 1.5 0 011.5 1.5 1.5 1.5 0 01-1.5 1.5z"/><path class="a" d="M18 2A16 16 0 006.686 29.314 16 16 0 0029.314 6.686 15.9 15.9 0 0018 2m0-2A18 18 0 110 18 18 18 0 0118 0z"/></svg>